<?xml version="1.0" standalone="no"?>
<!DOCTYPE svg PUBLIC "-//W3C//DTD SVG 20010904//EN"
 "http://www.w3.org/TR/2001/REC-SVG-20010904/DTD/svg10.dtd">
<svg version="1.0" xmlns="http://www.w3.org/2000/svg"
 width="290.000000pt" height="290.000000pt" viewBox="0 0 290.000000 290.000000"
 preserveAspectRatio="xMidYMid meet">
<metadata>
Created by potrace 1.11, written by Peter Selinger 2001-2013
</metadata>
<g transform="translate(0.000000,290.000000) scale(0.100000,-0.100000)"
fill="#000000" stroke="none">
<path d="M1140 2638 c-566 -64 -1002 -481 -1115 -1068 -22 -112 -27 -368 -9
-482 40 -267 183 -506 389 -653 112 -80 281 -152 398 -169 27 -4 59 -9 70 -12
29 -6 276 -6 286 0 4 3 27 7 52 10 191 24 429 150 565 300 l50 55 29 -62 c52
-114 197 -232 332 -272 116 -34 292 -46 423 -30 90 12 202 39 216 52 8 8 14
29 15 46 0 18 2 39 3 47 2 8 7 42 11 75 4 33 9 69 11 80 2 19 9 68 19 150 3
22 8 56 11 76 l5 36 -53 -14 c-80 -21 -207 -19 -260 5 -81 37 -118 99 -118
199 0 30 25 179 56 331 31 152 57 286 59 297 2 11 6 31 9 45 4 20 101 504 120
600 3 14 8 39 11 55 3 17 13 64 21 105 9 41 18 86 20 100 2 14 6 35 9 48 l5
22 -339 0 -338 0 -13 -62 c-14 -75 -14 -74 -30 -165 -7 -40 -16 -73 -20 -73
-4 0 -16 12 -25 28 -58 91 -206 200 -341 248 -134 49 -364 71 -534 52z m391
-573 c179 -45 301 -164 345 -336 34 -128 15 -353 -41 -492 -84 -211 -257 -364
-466 -413 -66 -16 -246 -15 -313 0 -181 43 -316 174 -357 346 -14 61 -17 214
-6 302 11 89 52 205 101 288 107 182 280 295 496 323 53 6 185 -3 241 -18z"/>
</g>
</svg>
