<?xml version="1.0" encoding="utf-8"?>
<!-- Generator: Adobe Illustrator 22.1.0, SVG Export Plug-In . SVG Version: 6.00 Build 0)  -->
<svg version="1.1" id="Layer_1" xmlns="http://www.w3.org/2000/svg" xmlns:xlink="http://www.w3.org/1999/xlink" x="0px" y="0px"
	 viewBox="0 0 294.3 120.5" style="enable-background:new 0 0 294.3 120.5;" xml:space="preserve">
<style type="text/css">
	.st0{opacity:0.1;}
	.st1{fill:#FFFFFF;}
</style>
<title>ampd-logo</title>
<g id="Layer_2_1_" class="st0">
	<g id="Layer_1-2">
		<path class="st1" d="M273.5,5v19.1c-5.2-5.8-12.3-8.7-21.5-8.7c-6.4-0.1-12.7,1.5-18.4,4.6c-2.8,1.5-5.3,3.5-7.5,5.7
			c-2.2-2.3-4.7-4.2-7.4-5.7c-5.6-3.1-11.8-4.7-18.2-4.6c-9.9,0-17.4,3.1-22.6,9.3v-8.3h-19.2c-3-0.7-6-1.1-9.1-1.1
			c-5.1-0.1-10.1,1-14.7,3.1c-4.4,1.9-8.2,4.9-11.2,8.7c-2.4-3.8-5.8-6.8-9.9-8.7c-4.3-2-9-3.1-13.7-3c-4.4-0.1-8.7,0.8-12.8,2.4
			c-3.5,1.4-6.6,3.5-9.2,6.2l-0.7,0.7v-8.2H57.7v7.9c-2.5-3-5.7-5.3-9.3-6.7c-4-1.6-8.2-2.3-12.5-2.3c-3.3,0-6.5,0.4-9.6,1.1
			c-3,0.8-6,1.9-8.7,3.4s-5.2,3.3-7.3,5.5c-2.2,2.2-4.1,4.7-5.6,7.4c-1.6,2.8-2.8,5.9-3.5,9.1c-1.5,6.9-1.5,14,0,20.8
			C1.9,66,3.1,69,4.7,71.9c1.5,2.7,3.4,5.2,5.6,7.4c2.2,2.2,4.6,4,7.3,5.5s5.7,2.7,8.7,3.4c3.2,0.8,6.4,1.2,9.7,1.1
			c4.3,0.1,8.5-0.7,12.5-2.2c3.6-1.4,6.7-3.6,9.3-6.4v7.5h20.8v-36c0-6.2,1.4-10.9,4.3-14.1s6.7-4.7,11.5-4.7
			c9.1,0,13.6,5.6,13.6,16.9v37.9h20.8v-36c0-6.2,1.4-10.9,4.3-14.1s6.7-4.7,11.6-4.7c4.4,0,7.7,1.4,10.1,4.2c1.9,2.2,3,5.4,3.4,9.5
			v56.3l21-4.8l-0.1-10.3l-0.1-7.6l0.1,0.2c5.2,5.7,12.4,8.5,21.5,8.5c6.4,0.1,12.6-1.5,18.2-4.6c2.7-1.5,5.2-3.4,7.4-5.7
			c2.2,2.3,4.8,4.2,7.5,5.7c5.6,3,12,4.6,18.4,4.4c9.8,0,17.3-3.1,22.4-9.3v8.3h19.9V0L273.5,5z M54.3,60.5
			c-1.7,4.7-5.2,8.4-9.8,10.4c-2.3,0.9-4.7,1.4-7.2,1.3c-2.5,0-5-0.4-7.3-1.3c-4.6-1.9-8.1-5.7-9.8-10.4c-0.9-2.6-1.3-5.4-1.3-8.2
			s0.4-5.5,1.3-8.2c0.8-2.4,2.2-4.5,3.9-6.3c1.7-1.8,3.7-3.1,5.9-4.1c2.3-0.9,4.8-1.4,7.3-1.3c2.5,0,4.9,0.4,7.2,1.3
			c2.2,0.9,4.2,2.3,5.9,4.1s3.1,4,3.9,6.3c0.9,2.6,1.3,5.4,1.3,8.2C55.6,55.1,55.2,57.9,54.3,60.5z M212.2,66.8
			c-7.3,7.2-19,7.2-26.3,0c-3.4-3.6-5.1-8.4-5.1-14.5s1.7-10.9,5.1-14.5c7.3-7.2,19-7.2,26.3,0c3.4,3.6,5.1,8.4,5.1,14.5
			S215.6,63.2,212.2,66.8z M266.4,66.8c-7.3,7.2-19,7.2-26.3,0c-3.5-3.6-5.2-8.4-5.2-14.5s1.7-10.9,5.2-14.5c7.3-7.2,19-7.2,26.3,0
			c3.5,3.6,5.2,8.4,5.2,14.5S269.9,63.2,266.4,66.8L266.4,66.8z"/>
		<path class="st1" d="M185.9,97.7h4.6V116H201l-0.5,4h-14.7L185.9,97.7L185.9,97.7z"/>
		<path class="st1" d="M212.2,117.9c-0.6,0.7-1.4,1.3-2.2,1.8c-1,0.5-2,0.7-3.1,0.7c-0.7,0-1.4-0.1-2.1-0.3
			c-0.6-0.2-1.2-0.5-1.7-0.9s-0.9-0.9-1.2-1.5c-0.3-0.7-0.5-1.4-0.4-2.2c0-1,0.2-1.9,0.8-2.7c0.5-0.7,1.2-1.3,2-1.7
			c0.9-0.4,1.8-0.7,2.7-0.8c1-0.2,2-0.3,3.1-0.3l2.1-0.1v-0.8c0.1-0.8-0.2-1.5-0.8-2c-0.6-0.4-1.3-0.6-1.9-0.6c-1.7,0-2.7,0.7-3,2
			l-4-0.4c0.2-1.5,1-2.8,2.2-3.7c1.5-0.8,3.2-1.2,4.9-1.1c1.1,0,2.2,0.1,3.2,0.4c0.8,0.3,1.5,0.7,2.1,1.3c0.5,0.6,0.9,1.3,1.1,2
			c0.3,0.9,0.4,1.8,0.4,2.7V120h-4.1L212.2,117.9z M212.1,112.7l-1.9,0.1c-0.7,0-1.5,0.1-2.2,0.3c-0.5,0.1-0.9,0.3-1.3,0.6
			c-0.3,0.2-0.5,0.5-0.6,0.8s-0.2,0.7-0.1,1c0,0.5,0.2,1,0.6,1.3c0.4,0.3,1,0.5,1.6,0.5c1,0,1.9-0.2,2.7-0.8c0.4-0.3,0.8-0.7,1-1.1
			c0.3-0.5,0.4-1.1,0.4-1.7L212.1,112.7z"/>
		<path class="st1" d="M218.5,97.7h4.4v7.9c2.2-2.8,6.3-3.3,9.1-1c0.3,0.3,0.6,0.6,0.9,0.9c1.2,1.9,1.8,4.1,1.7,6.3
			c0,1.2-0.1,2.4-0.5,3.5c-0.3,1-0.8,1.9-1.4,2.7c-0.6,0.7-1.4,1.4-2.2,1.8c-0.9,0.4-1.9,0.6-2.9,0.6c-0.9,0-1.7-0.1-2.6-0.5
			c-0.9-0.4-1.7-1-2.3-1.8v1.8h-4.2V97.7z M222.9,112c0,0.9,0.1,1.7,0.3,2.5c0.2,0.6,0.5,1.1,0.9,1.5c0.4,0.3,0.8,0.6,1.3,0.7
			c0.4,0.1,0.9,0.2,1.3,0.2c0.5,0,0.9-0.1,1.4-0.3c0.4-0.2,0.8-0.5,1.1-0.9c0.4-0.5,0.6-1,0.8-1.6c0.2-0.8,0.3-1.5,0.3-2.3
			s-0.1-1.6-0.3-2.4c-0.1-0.6-0.4-1.1-0.7-1.6c-0.3-0.4-0.7-0.7-1.1-0.9c-0.4-0.2-0.9-0.3-1.4-0.3s-1,0.1-1.4,0.2
			c-0.4,0.2-0.8,0.4-1.1,0.7c-0.4,0.4-0.7,0.9-0.9,1.5c-0.2,0.7-0.3,1.5-0.3,2.3L222.9,112z"/>
	</g>
</g>
</svg>
