<?xml version="1.0" encoding="utf-8"?>
<!-- Generator: Adobe Illustrator 23.0.2, SVG Export Plug-In . SVG Version: 6.00 Build 0)  -->
<svg version="1.1" xmlns="http://www.w3.org/2000/svg" xmlns:xlink="http://www.w3.org/1999/xlink" x="0px" y="0px"
	 viewBox="0 0 75.4 21.6" style="enable-background:new 0 0 75.4 21.6;" xml:space="preserve">
<style type="text/css">
	.st0{fill:url(#SVGID_1_);}
</style>
<g id="Layer_2">
</g>
<g id="Layer_1">
	<linearGradient id="SVGID_1_" gradientUnits="userSpaceOnUse" x1="37.711" y1="0.2177" x2="37.711" y2="21.6366">
		<stop  offset="0" style="stop-color:#FFFFFF;stop-opacity:0"/>
		<stop  offset="0.1995" style="stop-color:#F9BBF8;stop-opacity:0.1995"/>
		<stop  offset="0.4148" style="stop-color:#F37AF1;stop-opacity:0.4148"/>
		<stop  offset="0.6105" style="stop-color:#EF45EB;stop-opacity:0.6105"/>
		<stop  offset="0.7794" style="stop-color:#EC20E7;stop-opacity:0.7794"/>
		<stop  offset="0.9149" style="stop-color:#EA08E5;stop-opacity:0.9149"/>
		<stop  offset="1" style="stop-color:#E900E4"/>
	</linearGradient>
	<path class="st0" d="M75.4,21.6V0.2l-4.3,1v3.9c-1.1-1.2-2.5-1.8-4.4-1.8c-1.3,0-2.6,0.3-3.8,0.9c-0.6,0.3-1.1,0.7-1.5,1.2
		C61,5,60.5,4.6,60,4.3c-1.1-0.6-2.4-1-3.7-0.9c-2,0-3.6,0.6-4.6,1.9V3.6h-3.9c-0.6-0.1-1.2-0.2-1.9-0.2c-1,0-2.1,0.2-3,0.6
		c-0.9,0.4-1.7,1-2.3,1.8c-0.5-0.8-1.2-1.4-2-1.8c-0.9-0.4-1.8-0.6-2.8-0.6c-0.9,0-1.8,0.2-2.6,0.5c-0.7,0.3-1.3,0.7-1.9,1.3
		l-0.1,0.1V3.6h-4v1.6c-0.5-0.6-1.2-1.1-1.9-1.4c-0.8-0.3-1.7-0.5-2.6-0.5c-0.7,0-1.3,0.1-2,0.2c-0.6,0.2-1.2,0.4-1.8,0.7
		S17.9,5,17.5,5.4c-0.4,0.4-0.8,1-1.1,1.5H0v14.7H75.4z"/>
</g>
</svg>
