<?xml version="1.0" encoding="utf-8"?>
<!-- Generator: Adobe Illustrator 23.0.2, SVG Export Plug-In . SVG Version: 6.00 Build 0)  -->
<svg version="1.1" id="Layer_1" xmlns="http://www.w3.org/2000/svg" xmlns:xlink="http://www.w3.org/1999/xlink" x="0px" y="0px"
	 viewBox="0 0 75.4 18.4" style="enable-background:new 0 0 75.4 18.4;" xml:space="preserve">
<style type="text/css">
	.st0{opacity:0.65;}
	.st1{fill:#FF009C;}
</style>
<g class="st0">
	<path class="st1" d="M75.5,18.6V0.2l-4.4,1v3.9c-1.1-1.2-2.5-1.8-4.4-1.8c-1.3,0-2.6,0.3-3.8,0.9c-0.6,0.3-1.1,0.7-1.5,1.2
		C61,5,60.5,4.6,60,4.3c-1.1-0.6-2.4-1-3.7-0.9c-2,0-3.6,0.6-4.6,1.9V3.6h-3.9c-0.6-0.1-1.2-0.2-1.9-0.2c-1,0-2.1,0.2-3,0.6
		s-1.7,1-2.3,1.8c-0.5-0.8-1.2-1.4-2-1.8c-0.9-0.4-1.8-0.6-2.8-0.6c-0.9,0-1.8,0.2-2.6,0.5c-0.7,0.3-1.3,0.7-1.9,1.3l-0.1,0.1V3.6
		h-4v1.6c-0.5-0.6-1.2-1.1-1.9-1.4c-0.8-0.3-1.7-0.5-2.6-0.5c-0.7,0-1.3,0.1-2,0.2c-0.6,0.2-1.2,0.4-1.8,0.7c-0.6,0.3-1,0.8-1.4,1.2
		s-0.8,1-1.1,1.5H0v11.7C0,18.6,75.5,18.6,75.5,18.6z"/>
</g>
</svg>
